# Blender v2.78 (sub 0) OBJ File: 'ring.blend1'
# www.blender.org
mtllib ring.mtl
o Torus
v 0.785630 -3.470456 0.000000
v -0.802694 -3.470025 0.000000
v 0.785630 -3.422925 -0.725175
v -0.802694 -3.422498 -0.725119
v 0.785630 -3.281147 -1.437943
v -0.802694 -3.280731 -1.437831
v 0.785630 -3.047548 -2.126107
v -0.802694 -3.047148 -2.125942
v 0.785630 -2.726121 -2.777894
v -0.802693 -2.725748 -2.777678
v 0.785630 -2.322371 -3.382147
v -0.802693 -2.322030 -3.381885
v 0.785630 -1.843203 -3.928534
v -0.802693 -1.842899 -3.928229
v 0.785630 -1.296818 -4.407700
v -0.802693 -1.296556 -4.407359
v 0.785630 -0.692562 -4.811451
v -0.802693 -0.692348 -4.811079
v 0.785630 -0.040778 -5.132876
v -0.802693 -0.040613 -5.132477
v 0.785631 0.647388 -5.366477
v -0.802693 0.647498 -5.366060
v 0.785631 1.360156 -5.508255
v -0.802693 1.360212 -5.507828
v 0.785631 2.085330 -5.555786
v -0.802693 2.085330 -5.555355
v 0.785631 2.810507 -5.508255
v -0.802693 2.810451 -5.507828
v 0.785631 3.523273 -5.366477
v -0.802693 3.523161 -5.366061
v 0.785631 4.211438 -5.132876
v -0.802692 4.211273 -5.132478
v 0.785631 4.863223 -4.811452
v -0.802692 4.863007 -4.811079
v 0.785631 5.467479 -4.407701
v -0.802692 5.467216 -4.407359
v 0.785631 6.013865 -3.928532
v -0.802692 6.013560 -3.928228
v 0.785631 6.493031 -3.382148
v -0.802692 6.492689 -3.381886
v 0.785631 6.896780 -2.777894
v -0.802692 6.896408 -2.777679
v 0.785632 7.218206 -2.126107
v -0.802692 7.217808 -2.125942
v 0.785632 7.451807 -1.437943
v -0.802692 7.451391 -1.437831
v 0.785632 7.593585 -0.725176
v -0.802692 7.593158 -0.725120
v 0.785632 7.641116 -0.000000
v -0.802692 7.640685 -0.000000
v 0.785632 7.593585 0.725176
v -0.802692 7.593158 0.725120
v 0.785632 7.451807 1.437943
v -0.802692 7.451391 1.437831
v 0.785632 7.218208 2.126105
v -0.802692 7.217809 2.125940
v 0.785631 6.896782 2.777892
v -0.802692 6.896410 2.777677
v 0.785631 6.493031 3.382148
v -0.802692 6.492689 3.381886
v 0.785631 6.013865 3.928533
v -0.802692 6.013560 3.928228
v 0.785631 5.467482 4.407700
v -0.802692 5.467218 4.407357
v 0.785631 4.863223 4.811452
v -0.802692 4.863007 4.811079
v 0.785631 4.211438 5.132876
v -0.802692 4.211273 5.132478
v 0.785631 3.523275 5.366477
v -0.802693 3.523163 5.366059
v 0.785631 2.810510 5.508255
v -0.802693 2.810453 5.507827
v 0.785631 2.085330 5.555786
v -0.802693 2.085330 5.555355
v 0.785631 1.360156 5.508255
v -0.802693 1.360212 5.507828
v 0.785631 0.647390 5.366477
v -0.802693 0.647501 5.366061
v 0.785630 -0.040778 5.132876
v -0.802693 -0.040613 5.132477
v 0.785630 -0.692562 4.811451
v -0.802693 -0.692348 4.811079
v 0.785630 -1.296816 4.407702
v -0.802693 -1.296555 4.407360
v 0.785630 -1.843201 3.928536
v -0.802693 -1.842896 3.928231
v 0.785630 -2.322371 3.382147
v -0.802693 -2.322030 3.381885
v 0.785630 -2.726121 2.777894
v -0.802693 -2.725748 2.777678
v 0.785630 -3.047546 2.126109
v -0.802694 -3.047147 2.125944
v 0.785630 -3.281147 1.437942
v -0.802694 -3.280731 1.437830
v 0.785630 -3.422925 0.725175
v -0.802694 -3.422498 0.725119
vt 0.7501 0.4820
vt 0.7501 0.5682
vt 0.9996 0.5682
vt 0.9995 0.4820
vt 0.7502 0.6523
vt 0.9996 0.6522
vt 0.7503 0.7326
vt 0.9997 0.7326
vt 0.7504 0.8080
vt 0.9998 0.8079
vt 0.7506 0.8770
vt 1.0000 0.8769
vt 0.5001 0.0000
vt 0.2507 0.0000
vt 0.2505 0.0615
vt 0.4999 0.0615
vt 0.2503 0.1305
vt 0.4998 0.1306
vt 0.2502 0.2059
vt 0.4997 0.2059
vt 0.2502 0.2862
vt 0.4996 0.2862
vt 0.2501 0.3703
vt 0.4995 0.3703
vt 0.2501 0.4565
vt 0.4995 0.4565
vt 1.0410 0.7313
vt 1.0435 0.7145
vt -0.2469 0.7136
vt -0.2493 0.7305
vt 0.4995 0.5435
vt 0.2501 0.5435
vt 0.2502 0.6297
vt 0.4996 0.6297
vt 0.2502 0.7138
vt 0.4997 0.7137
vt 0.2503 0.7941
vt 0.4998 0.7941
vt 0.2505 0.8695
vt 0.4999 0.8694
vt 0.2507 0.9385
vt 0.5001 0.9385
vt 0.7501 0.0000
vt 0.5007 0.0000
vt 0.5005 0.0615
vt 0.7499 0.0615
vt 0.5004 0.1305
vt 0.7498 0.1306
vt 0.5002 0.2059
vt 0.7497 0.2059
vt 0.5002 0.2862
vt 0.7496 0.2862
vt 0.5001 0.3703
vt 0.7495 0.3703
vt 0.5001 0.4565
vt 0.7495 0.4565
vt 0.5001 0.5435
vt 0.7495 0.5435
vt 0.9984 0.9728
vt 0.0017 0.9730
vt 0.0014 1.0001
vt 0.9988 0.9998
vt 0.7496 0.6297
vt 0.5002 0.6297
vt 0.5002 0.7138
vt 0.7497 0.7137
vt 0.5004 0.7941
vt 0.7498 0.7941
vt 0.5005 0.8695
vt 0.7499 0.8694
vt 0.5007 0.9385
vt 0.7501 0.9385
vt 0.2501 0.0000
vt 0.0007 0.0000
vt 0.0005 0.0615
vt 0.2499 0.0615
vt 0.0003 0.1305
vt 0.2498 0.1306
vt 0.0002 0.2059
vt 0.2496 0.2059
vt 0.0001 0.2862
vt 0.2495 0.2862
vt 0.0000 0.3703
vt 0.2495 0.3703
vt 0.0000 0.4565
vt 0.2494 0.4565
vt 0.1846 0.4791
vt 0.0648 0.4791
vt 0.0648 0.5209
vt 0.1846 0.5209
vt 1.0071 0.5020
vt 0.0161 0.5028
vt -0.0159 0.5498
vt 0.9871 0.5482
vt 0.2495 0.6297
vt 0.0000 0.6297
vt 0.0001 0.7138
vt 0.2495 0.7138
vt 0.0002 0.7941
vt 0.2496 0.7941
vt 0.0003 0.8695
vt 0.2498 0.8694
vt 0.0005 0.9385
vt 0.2499 0.9385
vt 0.0007 1.0000
vt 0.2501 1.0000
vt 1.0000 0.0000
vt 0.7506 0.0000
vt 0.7504 0.0690
vt 0.9998 0.0690
vt 0.7503 0.1444
vt 0.9997 0.1444
vt 0.7502 0.2247
vt 0.9996 0.2247
vt 0.7501 0.3087
vt 0.9996 0.3088
vt 0.7501 0.3950
vt 0.9995 0.3950
vt -0.0006 -0.0015
vt 0.9980 0.0000
vt 0.9980 0.0241
vt -0.0070 0.0232
vn 0.0003 0.9979 0.0654
vn 0.0003 0.9808 0.1951
vn 0.0003 0.9469 0.3214
vn 0.0003 0.8969 0.4423
vn 0.0003 0.8315 0.5556
vn 0.0003 0.7518 0.6593
vn 0.0003 0.6593 0.7518
vn 0.0003 0.5556 0.8315
vn 0.0003 0.4423 0.8969
vn 0.0003 0.3214 0.9469
vn 0.0003 0.1951 0.9808
vn 0.0003 0.0654 0.9979
vn 0.0003 -0.0654 0.9979
vn 0.0003 -0.1951 0.9808
vn 0.0003 -0.3214 0.9469
vn 0.0003 -0.4423 0.8969
vn 0.0003 -0.5556 0.8315
vn 0.0003 -0.6593 0.7518
vn 0.0003 -0.7518 0.6593
vn 0.0003 -0.8315 0.5556
vn 0.0003 -0.8969 0.4423
vn 0.0003 -0.9469 0.3214
vn 0.0003 -0.9808 0.1951
vn 0.0003 -0.9979 0.0654
vn 0.0003 -0.9979 -0.0654
vn 0.0003 -0.9808 -0.1951
vn 0.0003 -0.9469 -0.3214
vn 0.0003 -0.8969 -0.4423
vn 0.0003 -0.8315 -0.5556
vn 0.0003 -0.7518 -0.6593
vn 0.0003 -0.6593 -0.7518
vn 0.0003 -0.5556 -0.8315
vn 0.0003 -0.4423 -0.8969
vn 0.0003 -0.3214 -0.9469
vn 0.0003 -0.1951 -0.9808
vn 0.0003 -0.0654 -0.9979
vn 0.0003 0.0654 -0.9979
vn 0.0003 0.1951 -0.9808
vn 0.0003 0.3214 -0.9469
vn 0.0003 0.4423 -0.8969
vn 0.0003 0.5556 -0.8315
vn 0.0003 0.6593 -0.7518
vn 0.0003 0.7518 -0.6593
vn 0.0003 0.8315 -0.5556
vn 0.0003 0.8969 -0.4423
vn 0.0003 0.9469 -0.3214
vn 0.0003 0.9808 -0.1951
vn 0.0003 0.9979 -0.0654
usemtl Material.001
s off
f 1/1/1 3/2/1 4/3/1 2/4/1
f 4/3/2 3/2/2 5/5/2 6/6/2
f 6/6/3 5/5/3 7/7/3 8/8/3
f 8/8/4 7/7/4 9/9/4 10/10/4
f 10/10/5 9/9/5 11/11/5 12/12/5
f 12/13/6 11/14/6 13/15/6 14/16/6
f 14/16/7 13/15/7 15/17/7 16/18/7
f 16/18/8 15/17/8 17/19/8 18/20/8
f 18/20/9 17/19/9 19/21/9 20/22/9
f 20/22/10 19/21/10 21/23/10 22/24/10
f 22/24/11 21/23/11 23/25/11 24/26/11
f 24/27/12 23/28/12 25/29/12 26/30/12
f 26/31/13 25/32/13 27/33/13 28/34/13
f 28/34/14 27/33/14 29/35/14 30/36/14
f 30/36/15 29/35/15 31/37/15 32/38/15
f 32/38/16 31/37/16 33/39/16 34/40/16
f 34/40/17 33/39/17 35/41/17 36/42/17
f 36/43/18 35/44/18 37/45/18 38/46/18
f 38/46/19 37/45/19 39/47/19 40/48/19
f 40/48/20 39/47/20 41/49/20 42/50/20
f 42/50/21 41/49/21 43/51/21 44/52/21
f 44/52/22 43/51/22 45/53/22 46/54/22
f 46/54/23 45/53/23 47/55/23 48/56/23
f 48/56/24 47/55/24 49/57/24 50/58/24
f 50/59/25 49/60/25 51/61/25 52/62/25
f 52/63/26 51/64/26 53/65/26 54/66/26
f 54/66/27 53/65/27 55/67/27 56/68/27
f 56/68/28 55/67/28 57/69/28 58/70/28
f 58/70/29 57/69/29 59/71/29 60/72/29
f 60/73/30 59/74/30 61/75/30 62/76/30
f 62/76/31 61/75/31 63/77/31 64/78/31
f 64/78/32 63/77/32 65/79/32 66/80/32
f 66/80/33 65/79/33 67/81/33 68/82/33
f 68/82/34 67/81/34 69/83/34 70/84/34
f 70/84/35 69/83/35 71/85/35 72/86/35
f 72/87/36 71/88/36 73/89/36 74/90/36
f 74/91/37 73/92/37 75/93/37 76/94/37
f 76/95/38 75/96/38 77/97/38 78/98/38
f 78/98/39 77/97/39 79/99/39 80/100/39
f 80/100/40 79/99/40 81/101/40 82/102/40
f 82/102/41 81/101/41 83/103/41 84/104/41
f 84/104/42 83/103/42 85/105/42 86/106/42
f 86/107/43 85/108/43 87/109/43 88/110/43
f 88/110/44 87/109/44 89/111/44 90/112/44
f 90/112/45 89/111/45 91/113/45 92/114/45
f 92/114/46 91/113/46 93/115/46 94/116/46
f 94/116/47 93/115/47 95/117/47 96/118/47
f 96/119/48 95/120/48 1/121/48 2/122/48
